<?xml version="1.0" encoding="utf-8"?>
<!-- Generator: Adobe Illustrator 16.0.0, SVG Export Plug-In . SVG Version: 6.00 Build 0)  -->
<!DOCTYPE svg PUBLIC "-//W3C//DTD SVG 1.1//EN" "http://www.w3.org/Graphics/SVG/1.1/DTD/svg11.dtd">
<svg version="1.1" id="_x39_999_x5F_1" xmlns="http://www.w3.org/2000/svg" xmlns:xlink="http://www.w3.org/1999/xlink" x="0px"
	 y="0px" width="282.461px" height="182.787px" viewBox="-70.655 504.304 282.461 182.787"
	 enable-background="new -70.655 504.304 282.461 182.787" xml:space="preserve">
<path fill="#CD8E33" d="M211.806,567.858c-31.244,13.051-76.419,32.598-107.852,46.227c-9.239,4.029-18.522,8.094-27.803,12.156
	c-6.229-9.971-12.553-20.063-18.823-30.051c11.993-10.186,23.81-20.271,35.277-30.129c-11.794,9.363-23.88,19.02-36.093,28.83
	c-13.028-20.748-25.736-40.918-36.514-58.107c-7.201,14.275-16.85,33.51-27.058,53.92c-21.095-28.875-42.276-57.688-63.597-86.4
	c10.413,15.207,20.908,30.355,31.432,45.484c7.399,10.742,18.439,26.57,30.63,43.986c-16.073,32.145-33.29,66.713-44.406,89.17
	l-2.059,4.146c29.313,0.002,83.622-0.25,112.956-0.41l4.814-0.025l-2.812-3.867c0,0-11.61-15.971-25.018-34.414
	c13.605-6.078,27.225-12.186,40.821-18.307c13.043,19.619,25.67,38.496,36.274,54.15c-9.929-16.35-21.745-35.424-34.057-55.146
	c27.149-12.225,54.172-24.477,80.647-36.553C176.312,584.294,194.11,576.19,211.806,567.858z M53.819,597.06
	c-11.752,9.445-23.606,19.023-35.438,28.621c-9.795-13.475-18.404-25.316-21.87-30.086c9.038-18.385,17.553-35.752,24.032-49.039
	C30.425,561.603,41.923,579.065,53.819,597.06z M15.445,628.063c-19.859,16.121-39.592,32.244-58.546,47.814
	c10.424-21.025,24.688-49.936,38.03-77.07C1.633,608.38,8.601,618.312,15.445,628.063z M16.989,630.263
	c4.01,5.711,7.964,11.342,11.788,16.785c-22.774,10.045-45.503,20.145-68.088,30.254C-20.974,662.067-1.999,646.222,16.989,630.263z
	 M53.141,681.728c-24.597-0.143-65.653-0.326-92.677-0.367c23.241-10.217,46.808-20.656,70.482-31.227
	C39.394,662.159,47.085,673.103,53.141,681.728z M32.672,645.335c-4.228-5.814-8.575-11.795-12.75-17.537
	c11.655-9.805,23.297-19.635,34.791-29.389c6.332,9.576,12.766,19.283,19.12,28.846C60.127,633.255,46.405,639.282,32.672,645.335z"
	/>
</svg>
